<?xml version="1.0" standalone="no"?><!DOCTYPE svg PUBLIC "-//W3C//DTD SVG 1.1//EN" "http://www.w3.org/Graphics/SVG/1.1/DTD/svg11.dtd"><svg t="1581331732855" class="icon" viewBox="0 0 1024 1024" version="1.1" xmlns="http://www.w3.org/2000/svg" p-id="13663" width="64" height="64" xmlns:xlink="http://www.w3.org/1999/xlink"><defs><style type="text/css"></style></defs><path d="M810.667 405.333c-12.8 0-21.334 8.534-21.334 21.334V512c0 157.867-132.266 285.867-292.266 277.333-149.334-6.4-262.4-136.533-262.4-285.866v-76.8c0-12.8-8.534-21.334-21.334-21.334S192 413.867 192 426.667V512c0 168.533 132.267 307.2 298.667 320v149.333H341.333c-12.8 0-21.333 8.534-21.333 21.334S328.533 1024 341.333 1024h341.334c12.8 0 21.333-8.533 21.333-21.333s-8.533-21.334-21.333-21.334H533.333V832C701.867 821.333 832 674.133 832 503.467v-76.8c0-12.8-8.533-21.334-21.333-21.334zM512 746.667c130.133 0 234.667-104.534 234.667-234.667V234.667C746.667 104.533 642.133 0 512 0S277.333 104.533 277.333 234.667V512c0 130.133 104.534 234.667 234.667 234.667z" fill="#717171" p-id="13664"></path></svg>