<?xml version="1.0" standalone="no"?><!DOCTYPE svg PUBLIC "-//W3C//DTD SVG 1.1//EN" "http://www.w3.org/Graphics/SVG/1.1/DTD/svg11.dtd"><svg t="1687262597600" class="icon" viewBox="0 0 1024 1024" version="1.1" xmlns="http://www.w3.org/2000/svg" p-id="6962" width="32" height="32" xmlns:xlink="http://www.w3.org/1999/xlink"><path d="M940.8 372.8l-176-219.2c-17.6-22.4-46.4-36.8-75.2-36.8H334.4c-28.8 0-56 12.8-75.2 36.8l-176 219.2c-30.4 36.8-27.2 91.2 4.8 126.4l356.8 377.6 4.8 4.8c17.6 16 41.6 25.6 65.6 25.6h3.2c25.6-1.6 49.6-11.2 67.2-30.4l348.8-376c33.6-36.8 35.2-91.2 6.4-128z m-52.8 83.2L539.2 832c-6.4 6.4-14.4 9.6-22.4 9.6-8 0-16-3.2-22.4-8L136 454.4c-11.2-11.2-11.2-28.8-1.6-41.6l174.4-219.2c6.4-8 16-12.8 25.6-12.8h355.2c9.6 0 19.2 4.8 25.6 12.8l176 219.2c8 12.8 8 30.4-3.2 43.2z" fill="#fb9800" p-id="6963"></path><path d="M681.6 438.4L515.2 616 344 435.2c-12.8-12.8-32-14.4-46.4-1.6-12.8 11.2-12.8 32-1.6 44.8l172.8 182.4 3.2 3.2c25.6 24 65.6 22.4 91.2-3.2L729.6 480c11.2-12.8 11.2-33.6-1.6-44.8-14.4-11.2-33.6-9.6-46.4 3.2z" fill="#fb9800" p-id="6964"></path></svg>