<?xml version="1.0" standalone="no"?><!DOCTYPE svg PUBLIC "-//W3C//DTD SVG 1.1//EN" "http://www.w3.org/Graphics/SVG/1.1/DTD/svg11.dtd"><svg t="1561083559570" class="icon" viewBox="0 0 1024 1024" version="1.1" xmlns="http://www.w3.org/2000/svg" p-id="1830" width="64" height="64" xmlns:xlink="http://www.w3.org/1999/xlink"><defs><style type="text/css"></style></defs><path d="M513.390334 194.7085a290.93052 290.93052 0 0 0-130.077359 26.744878c31.671565 55.857124 63.918977 111.330351 95.974441 166.803577A127.96592 127.96592 0 0 1 511.918725 384.03408a127.96592 127.96592 0 0 1 123.61508 94.630798h193.036591c-10.749137-100.645196-72.748626-197.643364-163.540447-245.822534a317.099551 317.099551 0 0 0-151.639615-38.133844z m-188.301852 59.504153l-1.919489 1.343642c-80.61853 58.35246-130.461256 159.573503-129.181597 256.699637-0.511864 99.749435 48.755016 198.795057 130.205324 256.827602 32.759276-55.409244 64.814739-111.266368 96.998168-166.995526A127.96592 127.96592 0 0 1 383.952805 512a127.96592 127.96592 0 0 1 37.494015-90.34394L325.088482 254.14867z m487.550157 290.48264c-9.277529 0.767796-20.474547 3.199148-26.552929 1.023727l-98.085878 0.383898-52.977891 0.255932A127.96592 127.96592 0 0 1 511.918725 639.96592a127.96592 127.96592 0 0 1-32.503343-4.350841c-32.183429 55.601192-64.494824 111.074419-96.102407 166.995526 62.447369 29.432162 132.70066 32.887242 199.690819 19.322854 126.622278-27.128775 228.547134-139.674802 244.414908-267.960637 1.791523-8.957614-5.566518-9.917359-14.844046-9.213546z" p-id="1831" fill="#606368"></path><path d="M511.79076 0.136318c-72.940575 0-89.768093 1.471608-96.870202 8.509734-6.654228 6.654228-8.445751 20.922428-8.445751 65.326602l0.127966 2.751267a449.544279 449.544279 0 0 0-101.029094 38.133845c-17.531331-20.474547-36.662236-38.645708-44.212226-38.709691-10.621171-0.191949-123.934994 89.512161-142.234121 112.61001-8.957614 11.324984-6.142364 16.443621 30.391907 60.783812-8.957614 12.412694-17.915229 24.761406-25.72115 38.26181-10.36524 17.915229-18.81099 36.342321-26.36098 55.025346-18.171161-3.327114-37.749947-6.782194-49.010948-6.782194-22.458019 0-23.289798 2.239404-39.669435 104.292226-15.035996 94.694781-16.315655 91.623599 43.892311 103.268497 6.206347 1.215676 7.677955 0.959744 12.860575 1.919489a451.07987 451.07987 0 0 0 19.8987 100.965111c-27.512673 15.547859-56.113056 33.846986-58.224493 39.349521-3.45508 8.957614 82.474036 157.206133 95.33461 164.436208 6.590245 3.711012 18.427093-0.191949 44.340192-14.332183 9.021597-4.990671 14.90803-9.149563 22.777934-13.884303 23.033866 23.929627 49.266879 45.491885 78.059211 64.366858-1.919489 5.118637-3.902961 9.661427-5.758466 14.972013-12.220745 36.022407-14.588115 48.818999-10.045325 56.113056 3.327114 5.310586 40.053333 21.818189 84.201576 37.749947 43.124515 15.547859 83.43378 27.768605 89.384195 27.128775 8.317785-0.959744 15.611842-13.692353 32.183429-56.944835 1.471608-3.774995 1.919489-5.438552 3.199148-8.829648 33.271139 3.838978 66.734228 3.711012 99.685452 0.127966 7.422023 22.010138 16.699553 45.044004 23.225815 55.025346 4.414824 6.654228 11.516933 12.156762 15.99574 12.156762 14.076251 0 167.635356-59.120255 172.242129-66.286347 4.670756-7.486006 3.199148-12.924558-17.147433-69.229563a442.826068 442.826068 0 0 0 78.827007-64.750756c2.175421 1.279659 3.071182 2.175421 5.374568 3.519063 26.936826 15.803791 50.482556 28.664366 52.146113 28.792332 16.63557 0.447881 108.195186-158.549775 99.365537-172.626026-3.071182-4.862705-25.593184-20.666496-49.906709-35.126646l-1.599574-0.895761a443.401915 443.401915 0 0 0 19.130905-102.372736c29.304196-5.630501 58.224494-12.348711 62.319403-16.315655 5.950415-5.758466 4.286858-22.074121-8.957614-94.694782-8.829649-48.371118-18.81099-90.663855-22.138104-94.054951-2.239404-2.175421-7.038126-3.199148-15.99574-3.071182-8.957614 0.127966-21.818189 1.535591-40.309265 4.094909-3.071182 0.383898-4.798722 0.959744-7.54999 1.407625a449.608262 449.608262 0 0 0-52.338061-93.990968c18.555058-22.202087 33.783003-43.956294 33.846986-48.882982 0-11.580916-132.956591-123.487113-146.840894-123.487113-6.206347 0-25.273269 18.555058-43.380447 39.157572a446.025216 446.025216 0 0 0-103.332481-38.389777C613.459683 44.092612 611.156297 11.141387 606.741473 6.790546 602.262665 2.247756 573.342367 0.136318 511.918725 0.136318zM511.918725 128.102239a383.897761 383.897761 0 0 1 95.974441 12.604643 383.897761 383.897761 0 0 1 0.639829 0.255932 383.897761 383.897761 0 0 1 35.190629 11.005069 383.897761 383.897761 0 0 1 0.831778 0.255932 383.897761 383.897761 0 0 1 0.63983 0.255931 383.897761 383.897761 0 0 1 34.550798 14.90803 383.897761 383.897761 0 0 1 0.447881 0.127966 383.897761 383.897761 0 0 1 145.561234 124.190926h0.127966a383.897761 383.897761 0 0 1 0.63983 1.023727 383.897761 383.897761 0 0 1 19.770735 31.351651 383.897761 383.897761 0 0 1 0 0.127966 383.897761 383.897761 0 0 1 16.699552 33.463088 383.897761 383.897761 0 0 1 0.383898 0.895761 383.897761 383.897761 0 0 1 0.63983 1.343642 383.897761 383.897761 0 0 1 0.639829 1.663557A383.897761 383.897761 0 0 1 895.816487 512a383.897761 383.897761 0 0 1-1.599574 33.463088 383.897761 383.897761 0 0 1 0 0.127966 383.897761 383.897761 0 0 1-4.990671 35.766475 383.897761 383.897761 0 0 1-0.255932 2.111438 383.897761 383.897761 0 0 1-0.127966 0.383897 383.897761 383.897761 0 0 1-6.142364 25.913099 383.897761 383.897761 0 0 1-3.774995 14.844047 383.897761 383.897761 0 0 1-0.255931 0.895761 383.897761 383.897761 0 0 1-0.63983 1.855506 383.897761 383.897761 0 0 1-0.127966 0.127966 383.897761 383.897761 0 0 1-83.113865 143.321831 383.897761 383.897761 0 0 1-26.744878 26.488946 383.897761 383.897761 0 0 1-0.511863 0.511863 383.897761 383.897761 0 0 1-0.703813 0.63983 383.897761 383.897761 0 0 1-28.792332 23.289798 383.897761 383.897761 0 0 1-0.383898 0.255931 383.897761 383.897761 0 0 1-0.511863 0.383898 383.897761 383.897761 0 0 1-31.607583 20.602513 383.897761 383.897761 0 0 1-8.125836 4.606774 383.897761 383.897761 0 0 1-109.346879 40.245282l-0.255932 0.127965a383.897761 383.897761 0 0 1-0.383897 0 383.897761 383.897761 0 0 1-31.223685 4.862705 383.897761 383.897761 0 0 1-9.469478 1.151694A383.897761 383.897761 0 0 1 511.918725 895.897761a383.897761 383.897761 0 0 1-70.829137-6.846176 383.897761 383.897761 0 0 1-124.126942-46.89951l-0.63983-0.255932a383.897761 383.897761 0 0 1-1.343642-0.895761 383.897761 383.897761 0 0 1-30.391906-20.218616 383.897761 383.897761 0 0 1-0.63983-0.511864 383.897761 383.897761 0 0 1-29.240213-23.865644 383.897761 383.897761 0 0 1-31.095718-31.607582 383.897761 383.897761 0 0 1-0.895762-1.023727l-0.127966-0.127966a383.897761 383.897761 0 0 1-72.876592-125.854483 383.897761 383.897761 0 0 1-10.493205-35.574526 383.897761 383.897761 0 0 1-0.831778-3.774995 383.897761 383.897761 0 0 1-5.886433-30.583855 383.897761 383.897761 0 0 1-3.007199-24.313525 383.897761 383.897761 0 0 1-0.383898-3.966943A383.897761 383.897761 0 0 1 128.020964 512a383.897761 383.897761 0 0 1 30.519872-149.720127v-0.127966a383.897761 383.897761 0 0 1 4.990671-10.237274 383.897761 383.897761 0 0 1 11.708882-24.249541 383.897761 383.897761 0 0 1 22.394036-35.702492 383.897761 383.897761 0 0 1 142.937933-123.359148 383.897761 383.897761 0 0 1 2.623301-1.151693 383.897761 383.897761 0 0 1 32.119446-14.076251 383.897761 383.897761 0 0 1 3.774995-1.279659 383.897761 383.897761 0 0 1 33.271139-10.621172 383.897761 383.897761 0 0 1 0.319915-0.127966A383.897761 383.897761 0 0 1 511.918725 128.102239z" p-id="1832" fill="#606368"></path></svg>